<?xml version="1.0" encoding="UTF-8"?>
<svg width="150px" height="150px" viewBox="0 0 150 150" version="1.1" xmlns="http://www.w3.org/2000/svg" xmlns:xlink="http://www.w3.org/1999/xlink">
    <!-- Generator: Sketch 53.2 (72643) - https://sketchapp.com -->
    <title>insulto/grey</title>
    <desc>Created with Sketch.</desc>
    <g id="insulto/grey" stroke="none" stroke-width="1" fill="none" fill-rule="evenodd" opacity="0.499348958">
        <g id="Group" transform="translate(30.000000, 32.000000)" fill="#000000" fill-rule="nonzero">
            <g id="speech-bubble">
                <path d="M19.6393333,86 C19.4208788,86 19.1997273,85.9469332 19.0001515,85.8407997 C18.5632424,85.6099593 18.2908485,85.1588918 18.2908485,84.6733309 L18.2908485,65.770949 C6.48621212,59.7319511 0,49.1583981 0,35.9102801 C0,15.4371221 19.1296061,0 44.5,0 C69.8703939,0 89,15.4371221 89,35.9102801 C89,56.3807849 69.8703939,71.8179069 44.5,71.8179069 C43.6666364,71.8179069 42.8494545,71.7728002 42.0295758,71.7303468 L41.9756364,71.7276934 L20.381,85.7797729 C20.1571515,85.9257065 19.8982424,86 19.6393333,86 Z M44.5,2.65333827 C20.6695758,2.65333827 2.6969697,16.9521782 2.6969697,35.9102801 C2.6969697,44.7273232 5.73915152,56.7177589 20.2353636,63.7676786 C20.6938485,63.9905591 20.9851212,64.4522399 20.9851212,64.9563742 L20.9851212,82.2057263 L40.8590909,69.2733555 C41.1018182,69.1141553 41.3957879,69.0212884 41.6735758,69.0557818 L42.1752121,69.0823152 C42.9465455,69.1247686 43.7151818,69.1645687 44.497303,69.1645687 C68.3277273,69.1645687 86.3003333,54.8683821 86.3003333,35.9102801 C86.3003333,16.9521782 68.3304242,2.65333827 44.5,2.65333827 Z" id="Shape"></path>
            </g>
            <path d="M26.792,29.496 L22.088,30.392 L25.384,33.848 L22.408,36.024 L20.104,31.864 L17.832,36.024 L14.856,33.88 L18.088,30.36 L13.416,29.496 L14.536,26.104 L18.824,28.12 L18.248,23.288 L21.96,23.288 L21.384,28.12 L25.64,26.072 L26.792,29.496 Z M43.976,32.824 L41.672,32.824 L40.808,39.32 L42.792,39.32 L42.792,42.136 L40.424,42.136 L39.784,47 L36.36,47 L37,42.136 L33,42.136 L32.36,47 L28.968,47 L29.608,42.136 L27.688,42.136 L27.688,39.32 L29.96,39.32 L30.824,32.824 L28.872,32.824 L28.872,29.976 L31.208,29.976 L31.784,25.464 L35.208,25.464 L34.6,29.976 L38.6,29.976 L39.208,25.464 L42.632,25.464 L42.024,29.976 L43.976,29.976 L43.976,32.824 Z M37.384,39.32 L38.248,32.824 L34.248,32.824 L33.384,39.32 L37.384,39.32 Z M58.248,29.496 L53.544,30.392 L56.84,33.848 L53.864,36.024 L51.56,31.864 L49.288,36.024 L46.312,33.88 L49.544,30.36 L44.872,29.496 L45.992,26.104 L50.28,28.12 L49.704,23.288 L53.416,23.288 L52.84,28.12 L57.096,26.072 L58.248,29.496 Z M64.68,24.888 L64.2,39.192 L60.776,39.192 L60.264,24.888 L64.68,24.888 Z M62.504,42.296 C63.229337,42.296 63.8426642,42.5466642 64.344,43.048 C64.8453358,43.5493358 65.096,44.162663 65.096,44.888 C65.096,45.5920035 64.8453358,46.1999974 64.344,46.712 C63.8426642,47.2240026 63.229337,47.48 62.504,47.48 C61.778663,47.48 61.1653358,47.2240026 60.664,46.712 C60.1626642,46.1999974 59.912,45.5920035 59.912,44.888 C59.912,44.162663 60.1626642,43.5493358 60.664,43.048 C61.1653358,42.5466642 61.778663,42.296 62.504,42.296 Z M72.392,24.888 L71.912,39.192 L68.488,39.192 L67.976,24.888 L72.392,24.888 Z M70.216,42.296 C70.941337,42.296 71.5546642,42.5466642 72.056,43.048 C72.5573358,43.5493358 72.808,44.162663 72.808,44.888 C72.808,45.5920035 72.5573358,46.1999974 72.056,46.712 C71.5546642,47.2240026 70.941337,47.48 70.216,47.48 C69.490663,47.48 68.8773358,47.2240026 68.376,46.712 C67.8746642,46.1999974 67.624,45.5920035 67.624,44.888 C67.624,44.162663 67.8746642,43.5493358 68.376,43.048 C68.8773358,42.5466642 69.490663,42.296 70.216,42.296 Z" id="*#*!!"></path>
        </g>
    </g>
</svg>