<?xml version="1.0" encoding="UTF-8"?>
<svg width="150px" height="150px" viewBox="0 0 150 150" version="1.1" xmlns="http://www.w3.org/2000/svg" xmlns:xlink="http://www.w3.org/1999/xlink">
    <!-- Generator: Sketch 53.2 (72643) - https://sketchapp.com -->
    <title>minaccia/grey</title>
    <desc>Created with Sketch.</desc>
    <g id="minaccia/grey" stroke="none" stroke-width="1" fill="none" fill-rule="evenodd" opacity="0.500883557">
        <g id="gun" transform="translate(74.990011, 75.029186) rotate(22.000000) translate(-74.990011, -75.029186) translate(30.490011, 25.029186)" fill="#000000" fill-rule="nonzero">
            <path d="M44.664721,25.1130573 C44.1939642,23.9689053 43.3024358,22.7968848 41.0404158,23.4889496 L23.2135795,30.829173 C21.783404,31.4190539 21.0813721,33.1058652 21.6491152,34.5898569 L26.1910604,46.4664341 C26.8848858,48.1021535 28.1979317,48.601462 29.8153656,48.0897675 L37.0960557,45.0915937 C37.1072465,45.0877231 37.1176913,45.0830783 37.1288821,45.0784337 L47.6414557,40.7495444 C49.541642,39.8569817 49.7162175,38.4202116 49.20592,36.9888604 L44.664721,25.1130573 Z M34.2245139,37.4827502 C34.2222759,37.4835243 34.2207837,37.4842983 34.2185455,37.4850724 C33.9536983,37.5926754 33.1479656,37.6104803 32.8308947,36.8588079 C32.528745,36.1404228 33.1658708,35.5234478 33.4322102,35.4135226 L43.8768935,31.1125014 L44.6677052,33.1825033 L34.2245139,37.4827502 Z M42.0289306,26.280433 L42.8197422,28.3496607 L32.3758051,32.6499075 C32.1094657,32.7598327 31.3134316,32.7590586 30.9836779,32.0259654 C30.7330055,31.4709199 31.0336632,30.80982 31.5820091,30.582228 L42.0289306,26.280433 Z M28.8268509,45.2982843 L24.3393673,33.5641454 L28.062897,32.03061 C28.1658516,34.0100395 29.2789564,34.7384883 30.0802129,35.194446 C29.7982064,36.0962979 29.8273023,37.0631761 30.1682466,37.9549644 C30.5091909,38.8475269 31.1276653,39.5713308 31.9281758,40.0272887 C31.6461692,40.9283664 31.4566729,42.457257 32.5503804,43.765523 L28.8268509,45.2982843 Z M36.0717308,42.3148186 C35.5226388,42.5424105 34.8683541,42.2730161 34.6796038,41.6908765 C34.4408682,40.9585572 35.0145796,40.3555164 35.280919,40.245591 L45.7248563,35.9453441 L46.5164141,38.014572 L36.0717308,42.3148186 Z" id="Shape"></path>
            <path d="M88.4001194,14.1966619 C88.4001194,14.1966619 84.8391551,5.21227549 84.8346283,5.20094602 C84.2318294,3.68051145 82.385711,2.88970413 80.8768278,3.48941843 L79.2479883,4.13747263 L78.7070537,2.77263137 C78.1110448,1.26881347 76.4037434,0.530122532 74.9016503,1.12757086 L69.4877774,3.2786875 C68.8729074,3.52265197 68.3538516,3.97432614 68.0241607,4.54987059 L65.0358175,9.78339854 L47.3418986,16.8130482 C46.6493213,16.4693831 45.8194355,16.4097139 45.0461329,16.717124 L15.6251737,28.4062679 C14.5003014,28.8526546 13.8552538,30.0445305 14.0921484,31.2394273 C14.310182,32.3384002 14.4165584,33.4456816 14.4150494,34.5446543 C13.6304301,34.8067461 12.9054118,35.2365162 12.3033675,35.805263 C11.6145622,36.4548279 10.7952387,37.61347 9.743547,37.5658855 L5.14748878,37.3989625 C4.1840669,37.3627078 1.49071029,38.1112179 1.41451174,40.8990588 C1.36019195,42.879476 2.91811399,44.5449297 4.89625977,44.6113968 L10.8706828,44.810798 C9.18375143,46.9090432 6.15014161,48.8992791 5.81064299,49.5186317 C3.2055562,54.2687625 0.134978788,63.3483176 0.661579122,79.8223363 C0.686475646,80.6071011 1.33001428,81.2256981 2.10859801,81.2256981 C2.12444124,81.2256981 2.13953026,81.2256981 2.15537349,81.2249428 C2.95508158,81.1992625 3.582777,80.5300596 3.55712588,79.7294334 C3.16783402,67.5470738 4.81930683,57.4221726 8.21127626,51.1667133 C8.21127626,51.1667133 10.5462729,49.3947611 11.397283,48.560146 C13.6470279,52.6992328 17.9873304,55.1736212 22.5403855,55.1736212 C23.6290446,55.1736212 24.7297749,55.0316233 25.8169254,54.7378086 L27.9316251,60.0717922 C26.9704666,60.517424 25.6833891,61.2515831 24.4913714,62.3777471 C22.3766717,64.3740255 20.1563501,67.9874181 21.5905435,73.8682448 L25.4570566,89.4260749 C25.8825617,91.1383578 24.8391691,92.8853849 23.1303587,93.3204422 C23.1303587,93.3204422 8.98608764,96.9202391 8.97854332,96.9217498 C7.20560546,97.3734238 5.36401356,96.1830587 5.02753251,94.395245 C4.61409871,92.1950334 4.23989568,89.3905756 3.97508663,86.4977466 C3.90190584,85.7001416 3.1965029,85.1110015 2.39981257,85.1865322 C1.60312224,85.2597972 1.01692116,85.9652546 1.09010195,86.7636149 C1.36320971,89.7440597 1.75023821,92.6451969 2.18102441,94.9322689 C2.71592345,97.7744923 5.31422052,99.9142793 8.19392405,99.9203217 C9.63490741,99.9233429 23.8440606,96.1316977 23.8440606,96.1316977 C27.0934404,95.3053909 29.0783763,91.982792 28.2688605,88.7259047 L24.4038562,73.1741169 C23.5287039,69.5864049 24.2024202,66.6867781 26.4068987,64.5568101 C27.3574951,63.6383558 28.4114499,63.0439285 29.1666461,62.6957317 C30.3481016,64.3845999 31.9912755,64.9110494 33.6140792,64.9110494 C35.5703464,64.9110494 37.4979446,64.1451674 38.552654,63.7259715 L43.5598829,61.7364909 C47.930363,60.0007934 50.0744861,55.0293575 48.3430426,50.6606571 L46.7255198,46.5200596 L52.5965845,44.1876691 C54.0677455,43.603061 55.2243044,42.4799182 55.8519998,41.02444 C56.4796952,39.5689618 56.5038374,37.9556244 55.9198997,36.4827742 L55.474779,35.3596315 L83.0330218,24.4114447 C84.181282,23.9552388 84.7456043,22.6485564 84.2891672,21.4974673 L83.4728613,19.4377429 C83.4728613,19.4377429 86.6852737,18.1612726 86.6913092,18.1590068 C88.2122635,17.5547605 89.0006549,15.7110542 88.4001194,14.1966619 L88.4001194,14.1966619 Z M70.5387145,5.99024263 C70.543241,5.98268965 70.5492766,5.97740245 70.5560667,5.97438122 L75.9699396,3.82401984 C75.9872916,3.81722212 76.0076616,3.82553055 76.0144517,3.84290248 L76.5546317,5.20698848 L69.3519779,8.06884972 L70.5387145,5.99024263 Z M4.99358269,41.7117702 C4.60504522,41.6989299 4.29044312,41.3718816 4.31081309,40.9836533 C4.33948178,40.420949 4.78912916,40.2880149 5.04262154,40.297834 L9.63867957,40.464757 C10.8314519,40.5085647 12.0166795,40.0614225 12.8857962,39.2411583 L14.0084053,38.1822167 C13.7141732,39.4896546 13.2630172,40.7608377 12.6617271,41.9685747 L4.99358269,41.7117702 Z M45.6474228,51.7241305 C46.7919107,54.6124276 45.3765782,57.8949952 42.4915936,59.0407971 L37.4843647,61.030278 C33.2081897,62.7289652 31.9180945,62.0612731 31.1493185,60.3270864 L28.5404595,53.7445788 L31.6359334,52.5149377 L32.8075812,55.4697018 C33.1923465,56.4410278 34.0327944,57.1472404 35.0550628,57.3587266 C35.0550628,57.3587266 37.0822472,57.7673483 37.1788157,57.7673483 C37.8517778,57.7673483 38.4553311,57.2952809 38.5964115,56.6094613 C38.7578621,55.8254518 38.2538952,55.0580591 37.4707847,54.8964233 L35.6405095,54.518014 C35.5771364,54.5051738 35.5243253,54.4606106 35.5001832,54.3994307 L34.3285355,51.4454218 L44.0329178,47.5895755 L45.6474228,51.7241305 Z M51.5275406,41.4919756 L26.125492,51.5836432 C21.1469318,53.5625497 15.4863565,51.1372562 13.4712429,46.1779053 C16.6919542,41.8114707 17.9669604,36.3369997 16.9929765,30.9833779 L46.0480314,19.4400088 L53.2272974,37.5522901 C53.5253019,38.3053319 53.4136446,40.7057 51.5275406,41.4919756 L51.5275406,41.4919756 Z M85.6230199,15.4633133 L63.6499082,24.1924056 C62.9060289,24.4877308 62.5423879,25.3306545 62.838129,26.0753879 C63.0637071,26.6441346 63.7147903,27.2181685 64.7189519,26.8888543 L80.7802592,20.5072587 L81.3551436,21.9574497 L54.4057353,32.6639379 L53.8308507,31.2137469 L58.4254002,29.3889233 C59.1692797,29.0935979 59.5329204,28.2506744 59.2371793,27.505941 C58.9421926,26.7612074 58.1002358,26.3971489 57.3563565,26.6924743 L52.7625614,28.5180532 L49.0854132,19.2406076 L81.9458715,6.1858674 C82.0861977,6.13677225 82.1254285,6.23194113 82.1412719,6.27046188 L85.7075174,15.266933 C85.722606,15.3054538 85.7520293,15.4195053 85.6230199,15.4633133 Z" id="Shape"></path>
        </g>
    </g>
</svg>