<?xml version="1.0" encoding="UTF-8"?>
<svg width="150px" height="150px" viewBox="0 0 150 150" version="1.1" xmlns="http://www.w3.org/2000/svg" xmlns:xlink="http://www.w3.org/1999/xlink">
    <!-- Generator: Sketch 53.2 (72643) - https://sketchapp.com -->
    <title>razziale/grey</title>
    <desc>Created with Sketch.</desc>
    <g id="razziale/grey" stroke="none" stroke-width="1" fill="none" fill-rule="evenodd" opacity="0.503487723">
        <g id="african" transform="translate(38.000000, 23.000000)" fill="#000000" fill-rule="nonzero">
            <path d="M65.2596623,66.5587248 L48.2615955,60.8439597 L48.2615955,56.1442953 C51.1090297,53.7701342 53.2175622,50.5385906 54.234384,46.852349 C58.0570353,46.3926174 61.0642319,43.3355705 61.4836085,39.4697987 C62.6801633,38.5654362 63.5571929,37.3187919 63.9399573,35.8775168 C64.2694675,34.6375839 64.2311911,33.3322148 63.8384416,32.1090604 C64.5307458,31.0318792 64.903525,29.7818792 64.903525,28.4966443 C64.903525,27.2114094 64.5307458,25.9614094 63.8384416,24.8825503 C64.2295269,23.659396 64.2694675,22.3540268 63.9399573,21.114094 C63.6104471,19.8741611 62.9297922,18.7634228 61.9828664,17.9010067 C62.0477699,16.6174497 61.7498794,15.3473154 61.1141577,14.2332215 C60.478436,13.1191275 59.5331744,12.2248322 58.3981948,11.6409396 C58.1319239,10.385906 57.5195009,9.23489933 56.6175083,8.32718121 C55.71718,7.41778523 54.5755436,6.80033557 53.3290631,6.53020134 C52.7482597,5.38758389 51.8612449,4.43624161 50.757885,3.79362416 C49.654525,3.15268456 48.3930668,2.85234899 47.1199592,2.91778523 C46.264564,1.96308725 45.1628683,1.27684564 43.9330297,0.944630872 C42.7031911,0.610738255 41.4067848,0.651006711 40.1969165,1.04697987 C38.0551002,-0.348993289 35.1693896,-0.348993289 33.0259091,1.04697987 C31.8143766,0.651006711 30.5196345,0.610738255 29.2897959,0.944630872 C28.0599573,1.27684564 26.9582616,1.96308725 26.1028664,2.91778523 C24.8380798,2.85402685 23.5699647,3.15268456 22.4649406,3.79362416 C21.3615807,4.43624161 20.4745659,5.38758389 19.8937625,6.53020134 C18.647282,6.80033557 17.5056456,7.41778523 16.6053173,8.32718121 C15.7049889,9.23657718 15.0909017,10.385906 14.8246308,11.6409396 C13.6929796,12.2265101 12.747718,13.1224832 12.1103321,14.2348993 C11.4729462,15.3473154 11.1750557,16.6191275 11.2416234,17.9026846 C10.2963618,18.7634228 9.61404267,19.8741611 9.28453247,21.1157718 C8.95502226,22.3557047 8.9932987,23.6610738 9.38604824,24.8842282 C8.69374397,25.9614094 8.32096475,27.2114094 8.32096475,28.4966443 C8.32096475,29.7818792 8.69374397,31.0318792 9.38604824,32.1107383 C8.99496289,33.3338926 8.95502226,34.6392617 9.28453247,35.8791946 C9.66729685,37.3204698 10.5443265,38.5671141 11.7408813,39.4714765 C12.1602579,43.3372483 15.1674545,46.3926174 18.9901058,46.8540268 C20.0069276,50.5402685 22.1154601,53.7718121 24.9628942,56.1459732 L24.9628942,60.8456376 L7.96482746,66.5587248 C3.20190724,68.1577181 0,72.635906 0,77.6979866 L0,104 L73.2244898,104 L73.2244898,77.6979866 C73.2244898,72.635906 70.0225826,68.1577181 65.2596623,66.5587248 Z M59.9109462,83.8657718 L63.2393321,83.8657718 L63.2393321,88.8993289 L59.9109462,88.8993289 L59.9109462,83.8657718 Z M54.8484712,43.3104027 C54.8834193,42.8489933 54.9183673,42.3892617 54.9183673,41.9194631 L54.9183673,33.8389262 C56.8504954,34.533557 58.2467532,36.3791946 58.2467532,38.5637584 C58.2467532,40.7734899 56.8172115,42.635906 54.8484712,43.3104027 Z M14.9777365,38.5637584 C14.9777365,36.3791946 16.3739944,34.533557 18.3061224,33.8389262 L18.3061224,41.9194631 C18.3061224,42.3892617 18.3410705,42.8489933 18.3760186,43.3104027 C16.4072783,42.635906 14.9777365,40.7734899 14.9777365,38.5637584 Z M18.3061224,21.7852349 L18.3061224,30.3439597 C15.7266234,30.8741611 13.601449,32.6258389 12.4897681,34.9563758 C12.2983859,34.1845638 12.3932449,33.3573826 12.7676883,32.6208054 L13.2885807,31.590604 L12.5197236,30.7315436 C11.9588905,30.1057047 11.6493506,29.3120805 11.6493506,28.4966443 C11.6493506,27.6812081 11.9588905,26.8875839 12.5197236,26.2600671 L13.2885807,25.4010067 L12.7676883,24.3708054 C12.3865881,23.6174497 12.2900649,22.7684564 12.4997532,21.9815436 C12.7094416,21.1946309 13.2120278,20.5083893 13.9159814,20.0486577 L14.8795492,19.4194631 L14.6382412,18.2885906 C14.4635009,17.4630872 14.5899796,16.6191275 14.9943785,15.9110738 C15.5136067,15.0050336 16.292449,14.5973154 16.8566104,14.4127517 L17.9499852,14.057047 L18.0082319,12.9010067 C18.0498367,12.0587248 18.3893321,11.2768456 18.9601503,10.6996644 C19.6923952,9.95973154 20.5527829,9.76845638 21.1435714,9.73825503 L22.2885362,9.6795302 L22.6413451,8.57885906 C22.8244063,8.01006711 23.2304694,7.22147651 24.1291336,6.69966443 C25.0277978,6.17785235 25.9048275,6.2147651 26.487295,6.34228188 L27.608961,6.58389262 L28.2313692,5.61241611 C28.5542226,5.11073826 29.1500037,4.45469799 30.1501837,4.18456376 C30.9323544,3.97483221 31.7711076,4.0704698 32.5183302,4.45469799 L33.5384805,4.98154362 L34.3905473,4.20637584 C35.6353636,3.0738255 37.5857978,3.0738255 38.8306141,4.20637584 L39.6826809,4.98154362 L40.7028312,4.45469799 C41.4500538,4.0704698 42.2904712,3.97651007 43.0709777,4.18456376 C44.0728219,4.45469799 44.6669388,5.11073826 44.9897922,5.61241611 L45.6122004,6.58389262 L46.7338664,6.34228188 C47.3179981,6.21644295 48.1950278,6.1795302 49.0920278,6.69966443 C49.990692,7.22315436 50.3950909,8.01006711 50.5798163,8.57885906 L50.9326252,9.6795302 L52.07759,9.73825503 C52.6683785,9.76845638 53.5287662,9.95973154 54.2610111,10.6996644 C54.8334935,11.2768456 55.1713247,12.0587248 55.2129295,12.9010067 L55.2711763,14.057047 L56.364551,14.4127517 C56.9320408,14.5989933 57.7125473,15.0067114 58.2301113,15.9127517 C58.6345102,16.6191275 58.7609889,17.4630872 58.5862486,18.2902685 L58.3449406,19.4211409 L59.3085083,20.0503356 C60.012462,20.5083893 60.5150482,21.1963087 60.7247365,21.9832215 C60.9344249,22.7701342 60.8379017,23.6191275 60.4568015,24.3724832 L59.9359091,25.4026846 L60.7047662,26.261745 C61.2655993,26.8875839 61.5751391,27.6812081 61.5751391,28.4966443 C61.5751391,29.3120805 61.2655993,30.1057047 60.7047662,30.7332215 L59.9359091,31.5922819 L60.4568015,32.6224832 C60.8295807,33.3590604 60.9261039,34.1845638 60.7347217,34.9580537 C59.6230408,32.6275168 57.4978664,30.8758389 54.9183673,30.3456376 L54.9183673,21.7852349 L51.5899814,21.7852349 L51.5899814,24.3573826 C50.1338126,25.4748322 45.3875343,28.4966443 36.6122449,28.4966443 C27.8369555,28.4966443 23.0906772,25.4748322 21.6345083,24.3573826 L21.6345083,21.7852349 L18.3061224,21.7852349 Z M21.6345083,41.9194631 L21.6345083,28.3540268 C24.4020612,29.9328859 29.2664972,31.852349 36.6122449,31.852349 C43.9579926,31.852349 48.8224286,29.9328859 51.5899814,28.3540268 L51.5899814,41.9194631 C51.5899814,50.2449664 44.8716345,57.0201342 36.6122449,57.0201342 C28.3528553,57.0201342 21.6345083,50.2449664 21.6345083,41.9194631 Z M44.9332096,58.3389262 L44.9332096,61.4899329 C44.091128,62.5218121 41.3185826,65.409396 36.6122449,65.409396 C31.8959221,65.409396 29.1383544,62.533557 28.2912801,61.4899329 L28.2912801,58.3389262 C30.790898,59.6308725 33.6150334,60.3758389 36.6122449,60.3758389 C39.6094564,60.3758389 42.4335918,59.6308725 44.9332096,58.3389262 Z M26.0595974,64.0134228 C27.5423933,65.6778523 31.0438553,68.7651007 36.6122449,68.7651007 C42.1806345,68.7651007 45.6820965,65.6778523 47.1648924,64.0134228 L52.6733711,65.864094 C50.9409462,68.340604 46.0582041,73.7986577 36.6122449,73.7986577 C27.099718,73.7986577 22.2602449,68.3573826 20.5411336,65.8674497 L26.0595974,64.0134228 Z M52.4869814,75.364094 C50.9659091,76.511745 49.2051929,77.5855705 47.153243,78.4513423 L46.2928553,75.2114094 C48.0702134,74.4379195 49.5879573,73.5067114 50.8610649,72.5251678 L52.4869814,75.364094 Z M43.9929406,79.5201342 C42.2521948,79.9966443 40.3500223,80.3104027 38.278102,80.4261745 L38.278102,77.0771812 C40.0404824,76.9697987 41.6614063,76.704698 43.1392096,76.3104027 L43.9929406,79.5201342 Z M34.9497161,77.0771812 L34.9497161,80.4261745 L34.9480519,80.4261745 C32.8761317,80.3104027 30.972295,79.9966443 29.2332134,79.5201342 L30.0869443,76.3104027 C31.5630835,76.704698 33.1840074,76.9697987 34.9497161,77.0771812 Z M26.9316345,75.2130872 L26.0712468,78.4513423 C24.0192968,77.5855705 22.2585807,76.5100671 20.7375083,75.364094 L22.3634249,72.5251678 C23.6365325,73.5050336 25.1542764,74.4379195 26.9316345,75.2130872 Z M3.3283859,83.8657718 L6.6567718,83.8657718 L6.6567718,88.8993289 L3.3283859,88.8993289 L3.3283859,83.8657718 Z M13.3135436,100.644295 L3.3283859,100.644295 L3.3283859,92.2550336 L13.3135436,92.2550336 L13.3135436,100.644295 Z M13.3135436,88.8993289 L9.9851577,88.8993289 L9.9851577,83.8657718 L13.3135436,83.8657718 L13.3135436,88.8993289 Z M13.3135436,80.5100671 L3.3283859,80.5100671 L3.3283859,77.6979866 C3.3283859,74.0822148 5.61498701,70.8842282 9.0182616,69.7399329 L10.8422171,69.1275168 C11.3564527,70.0318792 12.1669147,71.3053691 13.3135436,72.7516779 L13.3135436,80.5100671 Z M17.2776512,66.9630872 C17.7386327,67.7181208 18.5723933,68.9144295 19.828859,70.2416107 L18.1630019,73.1510067 C16.2009184,71.2248322 14.8595788,69.3372483 14.0707514,68.0419463 L17.2776512,66.9630872 Z M56.5825603,100.644295 L16.6419295,100.644295 L16.6419295,76.3187919 C20.8573302,80.1694631 27.3094063,83.8657718 36.6122449,83.8657718 C45.9150835,83.8657718 52.3671596,80.1694631 56.5825603,76.3187919 L56.5825603,100.644295 Z M55.0631521,73.1510067 L53.397295,70.2416107 C54.6537607,68.9144295 55.4858571,67.7197987 55.9485028,66.9647651 L59.1554026,68.0436242 C58.3665751,69.3372483 57.0252356,71.2248322 55.0631521,73.1510067 Z M69.8961039,100.644295 L59.9109462,100.644295 L59.9109462,92.2550336 L69.8961039,92.2550336 L69.8961039,100.644295 Z M69.8961039,88.8993289 L66.567718,88.8993289 L66.567718,83.8657718 L69.8961039,83.8657718 L69.8961039,88.8993289 Z M69.8961039,80.5100671 L59.9109462,80.5100671 L59.9109462,72.7516779 C61.0575751,71.3053691 61.8680371,70.0318792 62.3822727,69.1275168 L64.2062282,69.7399329 C67.6095028,70.8842282 69.8961039,74.0822148 69.8961039,77.6979866 L69.8961039,80.5100671 L69.8961039,80.5100671 Z" id="Shape"></path>
            <circle id="Oval" cx="45.1020408" cy="36.6122449" r="1.59183673"></circle>
            <circle id="Oval" cx="28.122449" cy="36.6122449" r="1.59183673"></circle>
            <path d="M40.0612245,45.6326531 C40.0612245,47.388449 38.5143571,48.8163265 36.6122449,48.8163265 C34.7101327,48.8163265 33.1632653,47.388449 33.1632653,45.6326531 L29.7142857,45.6326531 C29.7142857,49.1442449 32.8080204,52 36.6122449,52 C40.4164694,52 43.5102041,49.1442449 43.5102041,45.6326531 L40.0612245,45.6326531 Z" id="Path"></path>
        </g>
    </g>
</svg>