<?xml version="1.0" encoding="UTF-8"?>
<svg width="150px" height="150px" viewBox="0 0 150 150" version="1.1" xmlns="http://www.w3.org/2000/svg" xmlns:xlink="http://www.w3.org/1999/xlink">
    <!-- Generator: Sketch 53.2 (72643) - https://sketchapp.com -->
    <title>insulto/blue</title>
    <desc>Created with Sketch.</desc>
    <g id="insulto/blue" stroke="none" stroke-width="1" fill="none" fill-rule="evenodd">
        <g id="speech-bubble" transform="translate(30.000000, 32.000000)" fill="#242EE5" fill-rule="nonzero">
            <path d="M19.6393333,86 C19.4208788,86 19.1997273,85.9469332 19.0001515,85.8407997 C18.5632424,85.6099593 18.2908485,85.1588918 18.2908485,84.6733309 L18.2908485,65.770949 C6.48621212,59.7319511 0,49.1583981 0,35.9102801 C0,15.4371221 19.1296061,0 44.5,0 C69.8703939,0 89,15.4371221 89,35.9102801 C89,56.3807849 69.8703939,71.8179069 44.5,71.8179069 C43.6666364,71.8179069 42.8494545,71.7728002 42.0295758,71.7303468 L41.9756364,71.7276934 L20.381,85.7797729 C20.1571515,85.9257065 19.8982424,86 19.6393333,86 Z M44.5,2.65333827 C20.6695758,2.65333827 2.6969697,16.9521782 2.6969697,35.9102801 C2.6969697,44.7273232 5.73915152,56.7177589 20.2353636,63.7676786 C20.6938485,63.9905591 20.9851212,64.4522399 20.9851212,64.9563742 L20.9851212,82.2057263 L40.8590909,69.2733555 C41.1018182,69.1141553 41.3957879,69.0212884 41.6735758,69.0557818 L42.1752121,69.0823152 C42.9465455,69.1247686 43.7151818,69.1645687 44.497303,69.1645687 C68.3277273,69.1645687 86.3003333,54.8683821 86.3003333,35.9102801 C86.3003333,16.9521782 68.3304242,2.65333827 44.5,2.65333827 Z" id="Shape"></path>
        </g>
        <path d="M56.792,61.496 L52.088,62.392 L55.384,65.848 L52.408,68.024 L50.104,63.864 L47.832,68.024 L44.856,65.88 L48.088,62.36 L43.416,61.496 L44.536,58.104 L48.824,60.12 L48.248,55.288 L51.96,55.288 L51.384,60.12 L55.64,58.072 L56.792,61.496 Z M73.976,64.824 L71.672,64.824 L70.808,71.32 L72.792,71.32 L72.792,74.136 L70.424,74.136 L69.784,79 L66.36,79 L67,74.136 L63,74.136 L62.36,79 L58.968,79 L59.608,74.136 L57.688,74.136 L57.688,71.32 L59.96,71.32 L60.824,64.824 L58.872,64.824 L58.872,61.976 L61.208,61.976 L61.784,57.464 L65.208,57.464 L64.6,61.976 L68.6,61.976 L69.208,57.464 L72.632,57.464 L72.024,61.976 L73.976,61.976 L73.976,64.824 Z M67.384,71.32 L68.248,64.824 L64.248,64.824 L63.384,71.32 L67.384,71.32 Z M88.248,61.496 L83.544,62.392 L86.84,65.848 L83.864,68.024 L81.56,63.864 L79.288,68.024 L76.312,65.88 L79.544,62.36 L74.872,61.496 L75.992,58.104 L80.28,60.12 L79.704,55.288 L83.416,55.288 L82.84,60.12 L87.096,58.072 L88.248,61.496 Z M94.68,56.888 L94.2,71.192 L90.776,71.192 L90.264,56.888 L94.68,56.888 Z M92.504,74.296 C93.229337,74.296 93.8426642,74.5466642 94.344,75.048 C94.8453358,75.5493358 95.096,76.162663 95.096,76.888 C95.096,77.5920035 94.8453358,78.1999974 94.344,78.712 C93.8426642,79.2240026 93.229337,79.48 92.504,79.48 C91.778663,79.48 91.1653358,79.2240026 90.664,78.712 C90.1626642,78.1999974 89.912,77.5920035 89.912,76.888 C89.912,76.162663 90.1626642,75.5493358 90.664,75.048 C91.1653358,74.5466642 91.778663,74.296 92.504,74.296 Z M102.392,56.888 L101.912,71.192 L98.488,71.192 L97.976,56.888 L102.392,56.888 Z M100.216,74.296 C100.941337,74.296 101.554664,74.5466642 102.056,75.048 C102.557336,75.5493358 102.808,76.162663 102.808,76.888 C102.808,77.5920035 102.557336,78.1999974 102.056,78.712 C101.554664,79.2240026 100.941337,79.48 100.216,79.48 C99.490663,79.48 98.8773358,79.2240026 98.376,78.712 C97.8746642,78.1999974 97.624,77.5920035 97.624,76.888 C97.624,76.162663 97.8746642,75.5493358 98.376,75.048 C98.8773358,74.5466642 99.490663,74.296 100.216,74.296 Z" id="*#*!!" fill="#242EE5" fill-rule="nonzero"></path>
    </g>
</svg>