<?xml version="1.0" encoding="UTF-8"?>
<svg width="150px" height="150px" viewBox="0 0 150 150" version="1.1" xmlns="http://www.w3.org/2000/svg" xmlns:xlink="http://www.w3.org/1999/xlink">
    <!-- Generator: Sketch 53.2 (72643) - https://sketchapp.com -->
    <title>osceno/grey</title>
    <desc>Created with Sketch.</desc>
    <g id="osceno/grey" stroke="none" stroke-width="1" fill="none" fill-rule="evenodd" opacity="0.500883557">
        <g id="Group" transform="translate(27.000000, 29.000000)" fill="#000000" fill-rule="nonzero">
            <g id="female-torso-outline-in-topless" transform="translate(12.000000, 0.000000)">
                <path d="M67.9594044,55.843823 C58.314526,37.2591148 65.9090456,29.885542 66.2881437,29.551533 C66.575756,29.2930597 66.7360057,28.9549198 66.8304812,28.6079282 C69.3029904,25.5876844 70.8468885,21.7932008 70.8468885,17.6174984 C70.8468885,7.90350225 62.8433734,0 52.9951932,0 C51.8848064,0 50.9854947,0.891084028 50.9854947,1.98694035 C50.9854947,3.0863374 51.8848064,3.97388069 52.9951932,3.97388069 C60.6154244,3.97388069 66.8197182,10.0934445 66.8197182,17.6174984 C66.8197182,25.1386017 60.6154244,31.2540346 52.9951932,31.2540346 C45.3743639,31.2540346 39.1760496,25.1386017 39.1760496,17.6174984 C39.1760496,16.5216421 38.2731503,15.6305581 37.1585779,15.6305581 C37.0981853,15.6305581 37.0551331,15.659474 36.9947405,15.6665555 C36.9343479,15.659474 36.8906978,15.6305581 36.8309031,15.6305581 C35.7151348,15.6305581 34.817617,16.5216421 34.817617,17.6174984 C34.817617,25.1386017 28.6097355,31.2540346 20.9853186,31.2540346 C13.368675,31.2540346 7.17155664,25.1386017 7.17155664,17.6174984 C7.17155664,10.0934445 13.368675,3.97388069 20.9853186,3.97388069 C22.0992931,3.97388069 22.9992027,3.0863374 22.9992027,1.98694035 C22.9986048,0.891084028 22.0992931,0 20.9853186,0 C11.1455096,0 3.14438639,7.90350225 3.14438639,17.6174984 C3.14438639,21.8079538 4.69545983,25.6089288 7.17514432,28.631533 C7.27141372,28.9690827 7.43166341,29.2960103 7.71210035,29.551533 C8.04695044,29.8572162 15.7096359,37.2107248 6.04083965,55.843823 C-2.50501294,72.3194355 -0.545541982,80.6773316 3.16292274,90.6887492 C3.46189603,91.4895446 4.22965944,91.9893778 5.05482573,91.9893778 C5.28563311,91.9893778 5.52062612,91.9498396 5.75203145,91.8713534 C6.78767493,91.4936754 7.33240427,90.3511995 6.94792462,89.3232072 C5.08352717,84.2859269 3.79853996,79.822245 4.18062782,74.4468249 C8.47328636,76.3877357 20.242669,80.9151507 36.3722781,80.9151507 C42.4288791,80.9151507 49.1103342,80.2542142 56.2354657,78.5936113 C56.2683528,78.5936113 56.2940645,78.6225273 56.3263536,78.6225273 C56.6139659,78.6225273 56.8944028,78.5180757 57.1748398,78.3923797 C61.2528355,77.3968441 65.4868953,76.0348428 69.8232039,74.3105067 C70.2381788,79.7508403 68.9567793,84.2493393 67.0708558,89.3302886 C66.68817,90.3576908 67.2311055,91.5048877 68.2721305,91.8778448 C68.501742,91.9569211 68.7343432,92 68.9675423,92 C69.7903168,92 70.5586782,91.496626 70.8570536,90.6952405 C74.5386107,80.6773316 76.504659,72.3194355 67.9594044,55.843823 Z M61.2235361,73.0736113 C61.6456864,71.7122001 61.7437497,70.6234253 61.7479353,70.5295959 C61.8202868,69.4366902 60.9759862,68.5025273 59.8655994,68.438204 C58.8317498,68.4057473 57.8050755,69.2000513 57.732126,70.2852854 C57.7285383,70.3212829 57.4953392,73.1343938 55.7260152,74.5902245 C40.772567,78.0754843 27.8054974,76.8970109 18.630007,74.8599102 C16.5419776,73.5339064 16.2758913,70.3820654 16.268716,70.2923669 C16.1975603,69.2000513 15.2581863,68.3738807 14.1442118,68.4311225 C13.0320311,68.4960359 12.1871326,69.4301988 12.2529067,70.530186 C12.2564944,70.6305067 12.35097,71.852059 12.8610184,73.3545093 C8.62636068,72.0715843 5.80704253,70.8175754 4.7887395,70.3212829 C5.58101873,66.6991148 7.04419402,62.6243233 9.62971505,57.6584477 C15.3257542,46.6792303 15.5278602,38.9368313 14.3044615,33.9243361 C16.3721607,34.756408 18.6246255,35.2326363 20.9930919,35.2326363 C28.0512534,35.2326363 34.1060606,31.1466325 37.0025138,25.2755099 C39.9025547,31.1466325 45.9537742,35.2326363 53.0023685,35.2326363 C55.3804021,35.2326363 57.6298771,34.7528672 59.7017621,33.9243361 C58.481951,38.9368313 58.6864488,46.6786402 64.3806941,57.6625786 C66.9434932,62.6107505 68.4072664,66.6560359 69.2043292,70.2711225 C66.4884558,71.3705196 63.8377586,72.2834381 61.2235361,73.0736113 Z M39.8403683,64.5074022 C39.8403683,66.055882 38.56734,67.3140218 36.9983282,67.3140218 C35.4293163,67.3140218 34.1527004,66.055882 34.1527004,64.5074022 C34.1527004,62.9547915 35.4293163,61.7043233 36.9983282,61.7043233 C38.56734,61.7043233 39.8403683,62.961873 39.8403683,64.5074022 Z M49.6377231,25.4336626 C49.6377231,24.1111995 50.7301715,23.0300962 52.0731595,23.0300962 C53.4167455,23.0300962 54.5091939,24.1076588 54.5091939,25.4336626 C54.5091939,26.7614368 53.4167455,27.8354586 52.0731595,27.8354586 C50.7307695,27.8354586 49.6377231,26.7614368 49.6377231,25.4336626 Z M21.9175174,23.0295061 C23.2628972,23.0295061 24.3553456,24.1070686 24.3553456,25.4330725 C24.3553456,26.7608467 23.2628972,27.8348685 21.9175174,27.8348685 C20.5757252,27.8348685 19.481483,26.7608467 19.481483,25.4330725 C19.4778953,24.1076588 20.5721376,23.0295061 21.9175174,23.0295061 Z" id="Shape"></path>
            </g>
            <rect id="Rectangle" transform="translate(48.500000, 20.000000) rotate(-4.000000) translate(-48.500000, -20.000000) " x="1" y="8" width="95" height="24"></rect>
        </g>
    </g>
</svg>